<?xml version="1.0" encoding="utf-8"?>
<svg version="1.1" xmlns:xlink="http://www.w3.org/1999/xlink" width="100px" height="32px" xmlns="http://www.w3.org/2000/svg">
  <defs>
    <mask fill="white" id="clip40">
      <path d="M 0 28  L 0 4  C 0 1.75999999999999  2.19999999999999 0  5 0  L 95 0  C 97.8 0  100 1.75999999999999  100 4  L 100 28  C 100 30.24  97.8 32  95 32  L 42.5 32  L 5 32  C 2.19999999999999 32  0 30.24  0 28  Z " fill-rule="evenodd" />
    </mask>
  </defs>
  <g transform="matrix(1 0 0 1 -781 -148 )">
    <path d="M 0 28  L 0 4  C 0 1.75999999999999  2.19999999999999 0  5 0  L 95 0  C 97.8 0  100 1.75999999999999  100 4  L 100 28  C 100 30.24  97.8 32  95 32  L 42.5 32  L 5 32  C 2.19999999999999 32  0 30.24  0 28  Z " fill-rule="nonzero" fill="#ffffff" stroke="none" transform="matrix(1 0 0 1 781 148 )" />
    <path d="M 0 28  L 0 4  C 0 1.75999999999999  2.19999999999999 0  5 0  L 95 0  C 97.8 0  100 1.75999999999999  100 4  L 100 28  C 100 30.24  97.8 32  95 32  L 42.5 32  L 5 32  C 2.19999999999999 32  0 30.24  0 28  Z " stroke-width="2" stroke="#d9d9d9" fill="none" transform="matrix(1 0 0 1 781 148 )" mask="url(#clip40)" />
  </g>
</svg>