<?xml version="1.0" encoding="utf-8"?>
<svg version="1.1" xmlns:xlink="http://www.w3.org/1999/xlink" width="11px" height="12px" xmlns="http://www.w3.org/2000/svg">
  <g transform="matrix(1 0 0 1 -783 -436 )">
    <path d="M 9.77777777777783 6  L 9.77777777777783 10.6666666666667  L 1.22222222222217 10.6666666666667  L 1.22222222222217 1.33333333333331  L 5.5 1.33333333333331  L 5.5 0  L 1.22222222222217 0  C 0.546944444444421 0  0 0.596666666666692  0 1.33333333333331  L 0 10.6666666666667  C 0 11.4033333333333  0.546944444444421 12  1.22222222222217 12  L 9.77777777777783 12  C 10.4530555555556 12  11 11.4033333333333  11 10.6666666666667  L 11 6  L 9.77777777777783 6  Z M 11 0  L 6.72222222222229 0  L 6.72222222222229 1.33333333333331  L 8.9130555555555 1.33333333333331  L 2.90583333333325 7.88666666666666  L 3.77055555555557 8.82999999999998  L 9.77777777777783 2.27666666666664  L 9.77777777777783 4.66666666666669  L 11 4.66666666666669  L 11 0  Z " fill-rule="nonzero" fill="#666ee8" stroke="none" transform="matrix(1 0 0 1 783 436 )" />
  </g>
</svg>