<?xml version="1.0" encoding="utf-8"?>
<svg version="1.1" xmlns:xlink="http://www.w3.org/1999/xlink" width="12px" height="12px" xmlns="http://www.w3.org/2000/svg">
  <g transform="matrix(1 0 0 1 -766 -436 )">
    <path d="M 4.22568993506491 4.5703125  C 4.27609577922078 4.6171875  4.30129870129872 4.67708333333331  4.30129870129872 4.75  L 4.30129870129872 9.25  C 4.30129870129872 9.32291666666669  4.27609577922078 9.3828125  4.22568993506491 9.4296875  C 4.17528409090903 9.4765625  4.11087662337661 9.5  4.03246753246754 9.5  L 3.49480519480528 9.5  C 3.41639610389609 9.5  3.35198863636367 9.4765625  3.3015827922078 9.4296875  C 3.25117694805192 9.3828125  3.2259740259741 9.32291666666669  3.2259740259741 9.25  L 3.2259740259741 4.75  C 3.2259740259741 4.67708333333331  3.25117694805192 4.6171875  3.3015827922078 4.5703125  C 3.35198863636367 4.5234375  3.41639610389609 4.5  3.49480519480528 4.5  L 4.03246753246754 4.5  C 4.11087662337661 4.5  4.17528409090903 4.5234375  4.22568993506491 4.5703125  Z M 6.37633928571427 4.5703125  C 6.42674512987014 4.6171875  6.45194805194808 4.67708333333331  6.45194805194808 4.75  L 6.45194805194808 9.25  C 6.45194805194808 9.32291666666669  6.42674512987014 9.3828125  6.37633928571427 9.4296875  C 6.3259334415585 9.4765625  6.26152597402597 9.5  6.1831168831169 9.5  L 5.64545454545453 9.5  C 5.56704545454545 9.5  5.50263798701292 9.4765625  5.45223214285716 9.4296875  C 5.40182629870128 9.3828125  5.37662337662334 9.32291666666669  5.37662337662334 9.25  L 5.37662337662334 4.75  C 5.37662337662334 4.67708333333331  5.40182629870128 4.6171875  5.45223214285716 4.5703125  C 5.50263798701292 4.5234375  5.56704545454545 4.5  5.64545454545453 4.5  L 6.1831168831169 4.5  C 6.26152597402597 4.5  6.3259334415585 4.5234375  6.37633928571427 4.5703125  Z M 8.52698863636363 4.5703125  C 8.5773944805195 4.6171875  8.60259740259744 4.67708333333331  8.60259740259744 4.75  L 8.60259740259744 9.25  C 8.60259740259744 9.32291666666669  8.5773944805195 9.3828125  8.52698863636363 9.4296875  C 8.47658279220775 9.4765625  8.41217532467533 9.5  8.33376623376626 9.5  L 7.79610389610389 9.5  C 7.71769480519481 9.5  7.65328733766239 9.4765625  7.60288149350652 9.4296875  C 7.55247564935064 9.3828125  7.5272727272727 9.32291666666669  7.5272727272727 9.25  L 7.5272727272727 4.75  C 7.5272727272727 4.67708333333331  7.55247564935064 4.6171875  7.60288149350652 4.5703125  C 7.65328733766239 4.5234375  7.71769480519481 4.5  7.79610389610389 4.5  L 8.33376623376626 4.5  C 8.41217532467533 4.5  8.47658279220775 4.5234375  8.52698863636363 4.5703125  Z M 9.61911525974028 10.72265625  C 9.65831980519476 10.6263020833334  9.67792207792206 10.5208333333334  9.67792207792206 10.40625  L 9.67792207792206 3  L 2.15064935064936 3  L 2.15064935064936 10.40625  C 2.15064935064936 10.5208333333334  2.17025162337666 10.6263020833334  2.20945616883114 10.72265625  C 2.24866071428573 10.8190104166666  2.28926542207785 10.8893229166666  2.33127029220782 10.93359375  C 2.37327516233768 10.9778645833334  2.40267857142851 11  2.41948051948054 11  L 9.40909090909088 11  C 9.42589285714291 11  9.45529626623374 10.9778645833334  9.4973011363636 10.93359375  C 9.53930600649358 10.8893229166666  9.57991071428569 10.8190104166666  9.61911525974028 10.72265625  Z M 4.44411525974022 1.0859375  L 4.03246753246754 2  L 7.79610389610389 2  L 7.39285714285722 1.0859375  C 7.35365259740263 1.0390625  7.30604707792202 1.01041666666669  7.25004058441561 1  L 4.58693181818182 1  C 4.53092532467531 1.01041666666669  4.48331980519481 1.0390625  4.44411525974022 1.0859375  Z M 11.7529626623376 2.0703125  C 11.8033685064935 2.1171875  11.8285714285714 2.17708333333331  11.8285714285714 2.25  L 11.8285714285714 2.75  C 11.8285714285714 2.82291666666669  11.8033685064935 2.8828125  11.7529626623376 2.9296875  C 11.7025568181818 2.9765625  11.6381493506493 3  11.5597402597404 3  L 10.7532467532468 3  L 10.7532467532468 10.40625  C 10.7532467532468 10.8385416666667  10.6216314935065 11.2122395833334  10.358400974026 11.52734375  C 10.0951704545455 11.8424479166667  9.77873376623381 12  9.40909090909088 12  L 2.41948051948054 12  C 2.04983766233761 12  1.73340097402604 11.84765625  1.4701704545455 11.54296875  C 1.20693993506495 11.23828125  1.07532467532462 10.8697916666667  1.07532467532462 10.4375  L 1.07532467532462 3  L 0.268831168831184 3  C 0.190422077922108 3  0.126014610389575 2.9765625  0.0756087662338132 2.9296875  C 0.0252029220779377 2.8828125  0 2.82291666666669  0 2.75  L 0 2.25  C 0 2.17708333333331  0.0252029220779377 2.1171875  0.0756087662338132 2.0703125  C 0.126014610389575 2.0234375  0.190422077922108 2  0.268831168831184 2  L 2.86473214285718 2  L 3.45280032467531 0.6953125  C 3.53681006493503 0.502604166666686  3.68802759740265 0.338541666666686  3.90645292207785 0.203125  C 4.12487824675327 0.0677083333333144  4.34610389610395 0  4.5701298701299 0  L 7.25844155844152 0  C 7.48246753246758 0  7.70369318181827 0.0677083333333144  7.92211850649358 0.203125  C 8.14054383116888 0.338541666666686  8.2917613636364 0.502604166666686  8.37577110389611 0.6953125  L 8.96383928571424 2  L 11.5597402597404 2  C 11.6381493506493 2  11.7025568181818 2.0234375  11.7529626623376 2.0703125  Z " fill-rule="nonzero" fill="#666ee8" stroke="none" transform="matrix(1 0 0 1 766 436 )" />
  </g>
</svg>