<?xml version="1.0" encoding="utf-8"?>
<svg version="1.1" xmlns:xlink="http://www.w3.org/1999/xlink" width="25px" height="30px" xmlns="http://www.w3.org/2000/svg">
  <g transform="matrix(1 0 0 1 -355 -186 )">
    <path d="M 17.2526041666667 1.13839285714286  L 23.8932291666667 7.96875  C 24.0451388888889 8.125  24.1970486111111 8.32589285714286  24.3489583333333 8.57142857142857  L 16.6666666666667 8.57142857142857  L 16.6666666666667 0.669642857142858  C 16.9053819444444 0.825892857142856  17.1006944444444 0.982142857142854  17.2526041666667 1.13839285714286  Z M 15.0390625 10.2455357142857  C 15.3428819444444 10.5580357142857  15.7118055555556 10.7142857142857  16.1458333333333 10.7142857142857  L 25 10.7142857142857  L 25 28.3928571428571  C 25 28.8392857142857  24.8480902777778 29.21875  24.5442708333333 29.53125  C 24.2404513888889 29.84375  23.8715277777778 30  23.4375 30  L 1.5625 30  C 1.12847222222222 30  0.759548611111111 29.84375  0.455729166666667 29.53125  C 0.151909722222222 29.21875  0 28.8392857142857  0 28.3928571428571  L 0 1.60714285714286  C 0 1.16071428571428  0.151909722222222 0.781249999999999  0.455729166666667 0.46875  C 0.759548611111111 0.156250000000001  1.12847222222222 0  1.5625 0  L 14.5833333333333 0  L 14.5833333333333 9.10714285714286  C 14.5833333333333 9.55357142857143  14.7352430555556 9.93303571428571  15.0390625 10.2455357142857  Z M 18.603515625 23.4207589285714  C 18.701171875 23.3203125  18.75 23.1919642857143  18.75 23.0357142857143  L 18.75 21.9642857142857  C 18.75 21.8080357142857  18.701171875 21.6796875  18.603515625 21.5792410714286  C 18.505859375 21.4787946428571  18.3810763888889 21.4285714285714  18.2291666666667 21  L 6.77083333333333 21  C 6.61892361111111 21.4285714285714  6.494140625 21.4787946428571  6.396484375 21.5792410714286  C 6.298828125 21.6796875  6.25 21.8080357142857  6.25 21.9642857142857  L 6.25 23.0357142857143  C 6.25 23.1919642857143  6.298828125 23.3203125  6.396484375 23.4207589285714  C 6.494140625 23.5212053571429  6.61892361111111 23.5714285714286  6.77083333333333 23  L 18.2291666666667 23  C 18.3810763888889 23.5714285714286  18.505859375 23.5212053571429  18.603515625 23.4207589285714  Z M 18.603515625 19.1350446428571  C 18.701171875 19.0345982142857  18.75 18.90625  18.75 18.75  L 18.75 17.6785714285714  C 18.75 17.5223214285714  18.701171875 17.3939732142857  18.603515625 17.2935267857143  C 18.505859375 17.1930803571429  18.3810763888889 17.1428571428571  18.2291666666667 17  L 6.77083333333333 17  C 6.61892361111111 17.1428571428571  6.494140625 17.1930803571429  6.396484375 17.2935267857143  C 6.298828125 17.3939732142857  6.25 17.5223214285714  6.25 17.6785714285714  L 6.25 18.75  C 6.25 18.90625  6.298828125 19.0345982142857  6.396484375 19.1350446428571  C 6.494140625 19.2354910714286  6.61892361111111 19.2857142857143  6.77083333333333 19  L 18.2291666666667 19  C 18.3810763888889 19.2857142857143  18.505859375 19.2354910714286  18.603515625 19.1350446428571  Z M 18.603515625 14.8493303571429  C 18.701171875 14.7488839285714  18.75 14.6205357142857  18.75 14.4642857142857  L 18.75 13.3928571428571  C 18.75 13.2366071428571  18.701171875 13.1082589285714  18.603515625 13.0078125  C 18.505859375 12.9073660714286  18.3810763888889 12.8571428571429  18.2291666666667 13  L 6.77083333333333 13  C 6.61892361111111 12.8571428571429  6.494140625 12.9073660714286  6.396484375 13.0078125  C 6.298828125 13.1082589285714  6.25 13.2366071428571  6.25 13.3928571428571  L 6.25 14.4642857142857  C 6.25 14.6205357142857  6.298828125 14.7488839285714  6.396484375 14.8493303571429  C 6.494140625 14.9497767857143  6.61892361111111 15  6.77083333333333 15  L 18.2291666666667 15  C 18.3810763888889 15  18.505859375 14.9497767857143  18.603515625 14.8493303571429  Z " fill-rule="nonzero" fill="#ffffff" stroke="none" transform="matrix(1 0 0 1 355 186 )" />
  </g>
</svg>