<?xml version="1.0" encoding="utf-8"?>
<svg version="1.1" xmlns:xlink="http://www.w3.org/1999/xlink" width="22px" height="25px" xmlns="http://www.w3.org/2000/svg">
  <g transform="matrix(1 0 0 1 -1283 -329 )">
    <path d="M 1.69230769230762 19.1964285714286  L 1.69230769230762 23.2142857142857  L 5.5 23.2142857142857  L 5.5 19.1964285714286  L 1.69230769230762 19.1964285714286  Z M 6.34615384615381 19.1964285714286  L 6.34615384615381 23.2142857142857  L 10.5769230769231 23.2142857142857  L 10.5769230769231 19.1964285714286  L 6.34615384615381 19.1964285714286  Z M 1.69230769230762 13.8392857142857  L 1.69230769230762 18.3035714285714  L 5.5 18.3035714285714  L 5.5 13.8392857142857  L 1.69230769230762 13.8392857142857  Z M 6.34615384615381 13.8392857142857  L 6.34615384615381 18.3035714285714  L 10.5769230769231 18.3035714285714  L 10.5769230769231 13.8392857142857  L 6.34615384615381 13.8392857142857  Z M 1.69230769230762 8.92857142857144  L 1.69230769230762 12.9464285714286  L 5.5 12.9464285714286  L 5.5 8.92857142857144  L 1.69230769230762 8.92857142857144  Z M 11.4230769230769 19.1964285714286  L 11.4230769230769 23.2142857142857  L 15.6538461538462 23.2142857142857  L 15.6538461538462 19.1964285714286  L 11.4230769230769 19.1964285714286  Z M 6.34615384615381 8.92857142857144  L 6.34615384615381 12.9464285714286  L 10.5769230769231 12.9464285714286  L 10.5769230769231 8.92857142857144  L 6.34615384615381 8.92857142857144  Z M 16.5 19.1964285714286  L 16.5 23.2142857142857  L 20.3076923076924 23.2142857142857  L 20.3076923076924 19.1964285714286  L 16.5 19.1964285714286  Z M 11.4230769230769 13.8392857142857  L 11.4230769230769 18.3035714285714  L 15.6538461538462 18.3035714285714  L 15.6538461538462 13.8392857142857  L 11.4230769230769 13.8392857142857  Z M 6.64362980769238 6.56389508928572  C 6.72736378205127 6.4755394345238  6.76923076923072 6.37090773809524  6.76923076923072 6.25  L 6.76923076923072 2.23214285714289  C 6.76923076923072 2.11123511904759  6.72736378205127 2.00660342261904  6.64362980769238 1.91824776785711  C 6.55989583333326 1.82989211309524  6.4607371794873 1.78571428571428  6.34615384615381 1.78571428571428  L 5.5 1.78571428571428  C 5.38541666666674 1.78571428571428  5.28625801282055 1.82989211309524  5.20252403846166 1.91824776785711  C 5.11879006410254 2.00660342261904  5.07692307692309 2.11123511904759  5.07692307692309 2.23214285714289  L 5.07692307692309 6.25  C 5.07692307692309 6.37090773809524  5.11879006410254 6.4755394345238  5.20252403846166 6.56389508928572  C 5.28625801282055 6.65225074404759  5.38541666666674 6.69642857142855  5.5 6.69642857142855  L 6.34615384615381 6.69642857142855  C 6.4607371794873 6.69642857142855  6.55989583333326 6.65225074404759  6.64362980769238 6.56389508928572  Z M 16.5 13.8392857142857  L 16.5 18.3035714285714  L 20.3076923076924 18.3035714285714  L 20.3076923076924 13.8392857142857  L 16.5 13.8392857142857  Z M 11.4230769230769 8.92857142857144  L 11.4230769230769 12.9464285714286  L 15.6538461538462 12.9464285714286  L 15.6538461538462 8.92857142857144  L 11.4230769230769 8.92857142857144  Z M 16.5 8.92857142857144  L 16.5 12.9464285714286  L 20.3076923076924 12.9464285714286  L 20.3076923076924 8.92857142857144  L 16.5 8.92857142857144  Z M 16.7974759615383 6.56389508928572  C 16.8812099358975 6.4755394345238  16.9230769230769 6.37090773809524  16.9230769230769 6.25  L 16.9230769230769 2.23214285714289  C 16.9230769230769 2.11123511904759  16.8812099358975 2.00660342261904  16.7974759615383 1.91824776785711  C 16.7137419871794 1.82989211309524  16.6145833333333 1.78571428571428  16.5 1.78571428571428  L 15.6538461538462 1.78571428571428  C 15.5392628205127 1.78571428571428  15.4401041666667 1.82989211309524  15.3563701923076 1.91824776785711  C 15.2726362179487 2.00660342261904  15.2307692307693 2.11123511904759  15.2307692307693 2.23214285714289  L 15.2307692307693 6.25  C 15.2307692307693 6.37090773809524  15.2726362179487 6.4755394345238  15.3563701923076 6.56389508928572  C 15.4401041666667 6.65225074404759  15.5392628205127 6.69642857142855  15.6538461538462 6.69642857142855  L 16.5 6.69642857142855  C 16.6145833333333 6.69642857142855  16.7137419871794 6.65225074404759  16.7974759615383 6.56389508928572  Z M 21.4975961538462 4.1015625  C 21.832532051282 4.45498511904759  22 4.87351190476193  22 5.35714285714289  L 22 23.2142857142857  C 22 23.6979166666666  21.832532051282 24.116443452381  21.4975961538462 24.4698660714286  C 21.1626602564102 24.8232886904762  20.7660256410256 25  20.3076923076924 25  C 20.3076923076924 25  7.89743589743603 25  1.69230769230762 25  C 1.29567307692309 24.8232886904762  0.837339743589837 24.8232886904762  0.502403846153811 24.4698660714286  C 0.167467948718013 24.116443452381  0 23.6979166666666  0 23.2142857142857  L 0 5.35714285714289  C 0 4.87351190476193  0.167467948718013 4.45498511904759  0.502403846153811 4.1015625  C 0.837339743589837 3.74813988095241  1.23397435897436 3.57142857142856  1.69230769230762 3.57142857142856  L 3.38461538461547 3.57142857142856  L 3.38461538461547 2.23214285714289  C 3.38461538461547 1.61830357142856  3.59174679487182 1.09281994047615  4.00600961538453 0.655691964285722  C 4.42027243589746 0.218563988095241  4.91826923076928 0  5.5 0  L 6.34615384615381 0  C 6.92788461538453 0  7.42588141025635 0.218563988095241  7.84014423076928 0.655691964285722  C 8.25440705128199 1.09281994047615  8.46153846153834 1.61830357142856  8.46153846153834 2.23214285714289  L 8.46153846153834 3.57142857142856  L 13.5384615384617 3.57142857142856  L 13.5384615384617 2.23214285714289  C 13.5384615384617 1.61830357142856  13.745592948718 1.09281994047615  14.1598557692307 0.655691964285722  C 14.5741185897436 0.218563988095241  15.0721153846155 0  15.6538461538462 0  L 16.5 0  C 17.0817307692307 0  17.5797275641025 0.218563988095241  17.9939903846155 0.655691964285722  C 18.4082532051282 1.09281994047615  18.6153846153845 1.61830357142856  18.6153846153845 2.23214285714289  L 18.6153846153845 3.57142857142856  L 20.3076923076924 3.57142857142856  C 20.7660256410256 3.57142857142856  21.1626602564102 3.74813988095241  21.4975961538462 4.1015625  Z " fill-rule="nonzero" fill="#000000" stroke="none" transform="matrix(1 0 0 1 1283 329 )" />
  </g>
</svg>