<?xml version="1.0" encoding="utf-8"?>
<svg version="1.1" xmlns:xlink="http://www.w3.org/1999/xlink" width="12px" height="12px" viewBox="491 596  12 12" xmlns="http://www.w3.org/2000/svg">
  <path d="M 497 596  C 500.36 596  503 598.64  503 602  C 503 605.36  500.36 608  497 608  C 493.64 608  491 605.36  491 602  C 491 598.64  493.64 596  497 596  Z " fill-rule="nonzero" fill="#f0f0f0" stroke="none" />
  <path d="M 497 596.5  C 500.08 596.5  502.5 598.92  502.5 602  C 502.5 605.08  500.08 607.5  497 607.5  C 493.92 607.5  491.5 605.08  491.5 602  C 491.5 598.92  493.92 596.5  497 596.5  Z " stroke-width="1" stroke="#797979" fill="none" />
  <path d="M 497 605  C 495.32 605  494 603.68  494 602  C 494 600.32  495.32 599  497 599  C 498.68 599  500 600.32  500 602  C 500 603.68  498.68 605  497 605  " fill-rule="nonzero" fill="#797979" stroke="none" />
</svg>