<?xml version="1.0" encoding="utf-8"?>
<svg version="1.1" xmlns:xlink="http://www.w3.org/1999/xlink" width="12px" height="12px" viewBox="572 596  12 12" xmlns="http://www.w3.org/2000/svg">
  <path d="M 578 596  C 581.36 596  584 598.64  584 602  C 584 605.36  581.36 608  578 608  C 574.64 608  572 605.36  572 602  C 572 598.64  574.64 596  578 596  Z " fill-rule="nonzero" fill="#ffffff" stroke="none" />
  <path d="M 578 596.5  C 581.08 596.5  583.5 598.92  583.5 602  C 583.5 605.08  581.08 607.5  578 607.5  C 574.92 607.5  572.5 605.08  572.5 602  C 572.5 598.92  574.92 596.5  578 596.5  Z " stroke-width="1" stroke="#797979" fill="none" />
  <path d="M 578 605  C 576.32 605  575 603.68  575 602  C 575 600.32  576.32 599  578 599  C 579.68 599  581 600.32  581 602  C 581 603.68  579.68 605  578 605  " fill-rule="nonzero" fill="#797979" stroke="none" />
</svg>