<?xml version="1.0" encoding="utf-8"?>
<svg version="1.1" xmlns:xlink="http://www.w3.org/1999/xlink" width="12px" height="12px" viewBox="657 596  12 12" xmlns="http://www.w3.org/2000/svg">
  <path d="M 663 596  C 666.36 596  669 598.64  669 602  C 669 605.36  666.36 608  663 608  C 659.64 608  657 605.36  657 602  C 657 598.64  659.64 596  663 596  Z " fill-rule="nonzero" fill="#ffffff" stroke="none" />
  <path d="M 663 596.5  C 666.08 596.5  668.5 598.92  668.5 602  C 668.5 605.08  666.08 607.5  663 607.5  C 659.92 607.5  657.5 605.08  657.5 602  C 657.5 598.92  659.92 596.5  663 596.5  Z " stroke-width="1" stroke="#797979" fill="none" />
  <path d="M 663 605  C 661.32 605  660 603.68  660 602  C 660 600.32  661.32 599  663 599  C 664.68 599  666 600.32  666 602  C 666 603.68  664.68 605  663 605  " fill-rule="nonzero" fill="#797979" stroke="none" />
</svg>