<?xml version="1.0" encoding="utf-8"?>
<svg version="1.1" xmlns:xlink="http://www.w3.org/1999/xlink" width="24px" height="24px" xmlns="http://www.w3.org/2000/svg">
  <g transform="matrix(1 0 0 1 -629 -420 )">
    <path d="M 19.796875 12.703125  C 19.984375 12.515625  20.078125 12.28125  20.078125 12  C 20.078125 11.71875  19.984375 11.484375  19.796875 11.296875  L 18.375 9.875  L 12.71875 4.21875  C 12.53125 4.03125  12.296875 3.9375  12.015625 3.9375  C 11.734375 3.9375  11.5 4.03125  11.3125 4.21875  L 9.890625 5.640625  C 9.703125 5.828125  9.609375 6.0625  9.609375 6.34375  C 9.609375 6.625  9.703125 6.859375  9.890625 7.046875  L 12.84375 10  L 5 10  C 4.72916666666667 10  4.49479166666667 10.0989583333333  4.296875 10.296875  C 4.09895833333333 10.4947916666667  4 10.7291666666667  4 11  L 4 13  C 4 13.2708333333333  4.09895833333333 13.5052083333333  4.296875 13.703125  C 4.49479166666667 13.9010416666667  4.72916666666667 14  5 14  L 12.84375 14  L 9.890625 16.953125  C 9.69270833333333 17.1510416666667  9.59375 17.3854166666667  9.59375 17.65625  C 9.59375 17.9270833333333  9.69270833333333 18.1614583333333  9.890625 18.359375  L 11.3125 19.78125  C 11.5 19.96875  11.734375 20.0625  12.015625 20.0625  C 12.296875 20.0625  12.53125 19.96875  12.71875 19.78125  L 18.375 14.125  L 19.796875 12.703125  Z M 22.390625 5.9765625  C 23.4635416666667 7.81510416666666  24 9.82291666666666  24 12  C 24 14.1770833333333  23.4635416666667 16.1848958333333  22.390625 18.0234375  C 21.3177083333333 19.8619791666667  19.8619791666667 21.3177083333333  18.0234375 22.390625  C 16.1848958333333 23.4635416666667  14.1770833333333 24  12 24  C 9.82291666666667 24  7.81510416666667 23.4635416666667  5.9765625 22.390625  C 4.13802083333333 21.3177083333333  2.68229166666667 19.8619791666667  1.609375 18.0234375  C 0.536458333333333 16.1848958333333  0 14.1770833333333  0 12  C 0 9.82291666666666  0.536458333333333 7.81510416666666  1.609375 5.9765625  C 2.68229166666667 4.13802083333333  4.13802083333333 2.68229166666666  5.9765625 1.609375  C 7.81510416666667 0.536458333333331  9.82291666666667 0  12 0  C 14.1770833333333 0  16.1848958333333 0.536458333333331  18.0234375 1.609375  C 19.8619791666667 2.68229166666666  21.3177083333333 4.13802083333333  22.390625 5.9765625  Z " fill-rule="nonzero" fill="#7f7f7f" stroke="none" transform="matrix(1 0 0 1 629 420 )" />
  </g>
</svg>