<?xml version="1.0" encoding="utf-8"?>
<svg version="1.1" xmlns:xlink="http://www.w3.org/1999/xlink" width="13px" height="16px" xmlns="http://www.w3.org/2000/svg">
  <defs>
    <mask fill="white" id="clip34">
      <path d="M 10.8333333333333 4.57142857142857  C 10.8333333333333 5.44642857142857  10.6104600694444 6.25595238095238  10.1647135416667 7  C 10.4299045138889 7.08333333333333  10.6824001736111 7.19642857142857  10.9222005208333 7.33928571428571  C 11.1620008680556 7.48214285714286  11.4130859375 7.69940476190476  11.6754557291667 7.99107142857143  C 11.9378255208333 8.28273809523809  12.162109375 8.62648809523809  12.3483072916667 9.02232142857143  C 12.5345052083333 9.41815476190476  12.6896701388889 9.93005952380952  12.8138020833333 10.5580357142857  C 12.9379340277778 11.1860119047619  13 11.889880952381  13 12.6696428571429  C 13 13.5863095238095  12.7178819444444 14.3705357142857  12.1536458333333 15.0223214285714  C 11.5894097222222 15.6741071428571  10.9095052083333 16  10.1139322916667 16  L 2.88606770833333 16  C 2.09049479166667 16  1.41059027777778 15.6741071428571  0.846354166666667 15.0223214285714  C 0.282118055555556 14.3705357142857  0 13.5863095238095  0 12.6696428571429  C 0 11.889880952381  0.0620659722222222 11.1860119047619  0.186197916666667 10.5580357142857  C 0.310329861111111 9.93005952380952  0.465494791666667 9.41815476190476  0.651692708333333 9.02232142857143  C 0.837890625 8.62648809523809  1.06217447916667 8.28273809523809  1.32454427083333 7.99107142857143  C 1.5869140625 7.69940476190476  1.83799913194444 7.48214285714286  2.07779947916667 7.33928571428571  C 2.31759982638889 7.19642857142857  2.57009548611111 7.08333333333333  2.83528645833333 7  C 2.38953993055556 6.25595238095238  2.16666666666667 5.44642857142857  2.16666666666667 4.57142857142857  C 2.16666666666667 3.95238095238095  2.28092447916667 3.36160714285714  2.50944010416667 2.79910714285714  C 2.73795572916667 2.23660714285714  3.046875 1.75  3.43619791666667 1.33928571428571  C 3.82552083333333 0.928571428571429  4.28678385416667 0.602678571428571  4.81998697916667 0.361607142857142  C 5.35319010416667 0.120535714285714  5.91319444444444 0  6.5 0  C 7.08680555555556 0  7.64680989583333 0.120535714285714  8.18001302083333 0.361607142857142  C 8.71321614583333 0.602678571428571  9.17447916666667 0.928571428571429  9.56380208333333 1.33928571428571  C 9.953125 1.75  10.2620442708333 2.23660714285714  10.4905598958333 2.79910714285714  C 10.7190755208333 3.36160714285714  10.8333333333333 3.95238095238095  10.8333333333333 4.57142857142857  Z M 8.7978515625 2.14732142857143  C 8.1630859375 1.47767857142857  7.39713541666667 1.14285714285714  6.5 1.14285714285714  C 5.60286458333333 1.14285714285714  4.8369140625 1.47767857142857  4.2021484375 2.14732142857143  C 3.5673828125 2.81696428571429  3.25 3.625  3.25 4.57142857142857  C 3.25 5.51785714285714  3.5673828125 6.32589285714286  4.2021484375 6.99553571428571  C 4.8369140625 7.66517857142857  5.60286458333333 8  6.5 8  C 7.39713541666667 8  8.1630859375 7.66517857142857  8.7978515625 6.99553571428571  C 9.4326171875 6.32589285714286  9.75 5.51785714285714  9.75 4.57142857142857  C 9.75 3.625  9.4326171875 2.81696428571429  8.7978515625 2.14732142857143  Z M 2.88606770833333 14.8571428571429  L 10.1139322916667 14.8571428571429  C 10.6104600694444 14.8571428571429  11.0350477430556 14.6443452380952  11.3876953125 14.21875  C 11.7403428819444 13.7931547619048  11.9166666666667 13.2767857142857  11.9166666666667 12.6696428571429  C 11.9166666666667 11.2470238095238  11.6952039930556 10.125  11.2522786458333 9.30357142857143  C 10.8093532986111 8.48214285714286  10.1731770833333 8.05059523809524  9.34375 8.00892857142857  C 8.52560763888889 8.76488095238095  7.57769097222222 9.14285714285714  6.5 9.14285714285714  C 5.42230902777778 9.14285714285714  4.47439236111111 8.76488095238095  3.65625 8.00892857142857  C 2.82682291666667 8.05059523809524  2.19064670138889 8.48214285714286  1.74772135416667 9.30357142857143  C 1.30479600694444 10.125  1.08333333333333 11.2470238095238  1.08333333333333 12.6696428571429  C 1.08333333333333 13.2767857142857  1.25965711805556 13.7931547619048  1.6123046875 14.21875  C 1.96495225694444 14.6443452380952  2.38953993055556 14.8571428571429  2.88606770833333 14.8571428571429  Z " fill-rule="evenodd" />
    </mask>
  </defs>
  <g transform="matrix(1 0 0 1 -628 -332 )">
    <path d="M 10.8333333333333 4.57142857142857  C 10.8333333333333 5.44642857142857  10.6104600694444 6.25595238095238  10.1647135416667 7  C 10.4299045138889 7.08333333333333  10.6824001736111 7.19642857142857  10.9222005208333 7.33928571428571  C 11.1620008680556 7.48214285714286  11.4130859375 7.69940476190476  11.6754557291667 7.99107142857143  C 11.9378255208333 8.28273809523809  12.162109375 8.62648809523809  12.3483072916667 9.02232142857143  C 12.5345052083333 9.41815476190476  12.6896701388889 9.93005952380952  12.8138020833333 10.5580357142857  C 12.9379340277778 11.1860119047619  13 11.889880952381  13 12.6696428571429  C 13 13.5863095238095  12.7178819444444 14.3705357142857  12.1536458333333 15.0223214285714  C 11.5894097222222 15.6741071428571  10.9095052083333 16  10.1139322916667 16  L 2.88606770833333 16  C 2.09049479166667 16  1.41059027777778 15.6741071428571  0.846354166666667 15.0223214285714  C 0.282118055555556 14.3705357142857  0 13.5863095238095  0 12.6696428571429  C 0 11.889880952381  0.0620659722222222 11.1860119047619  0.186197916666667 10.5580357142857  C 0.310329861111111 9.93005952380952  0.465494791666667 9.41815476190476  0.651692708333333 9.02232142857143  C 0.837890625 8.62648809523809  1.06217447916667 8.28273809523809  1.32454427083333 7.99107142857143  C 1.5869140625 7.69940476190476  1.83799913194444 7.48214285714286  2.07779947916667 7.33928571428571  C 2.31759982638889 7.19642857142857  2.57009548611111 7.08333333333333  2.83528645833333 7  C 2.38953993055556 6.25595238095238  2.16666666666667 5.44642857142857  2.16666666666667 4.57142857142857  C 2.16666666666667 3.95238095238095  2.28092447916667 3.36160714285714  2.50944010416667 2.79910714285714  C 2.73795572916667 2.23660714285714  3.046875 1.75  3.43619791666667 1.33928571428571  C 3.82552083333333 0.928571428571429  4.28678385416667 0.602678571428571  4.81998697916667 0.361607142857142  C 5.35319010416667 0.120535714285714  5.91319444444444 0  6.5 0  C 7.08680555555556 0  7.64680989583333 0.120535714285714  8.18001302083333 0.361607142857142  C 8.71321614583333 0.602678571428571  9.17447916666667 0.928571428571429  9.56380208333333 1.33928571428571  C 9.953125 1.75  10.2620442708333 2.23660714285714  10.4905598958333 2.79910714285714  C 10.7190755208333 3.36160714285714  10.8333333333333 3.95238095238095  10.8333333333333 4.57142857142857  Z M 8.7978515625 2.14732142857143  C 8.1630859375 1.47767857142857  7.39713541666667 1.14285714285714  6.5 1.14285714285714  C 5.60286458333333 1.14285714285714  4.8369140625 1.47767857142857  4.2021484375 2.14732142857143  C 3.5673828125 2.81696428571429  3.25 3.625  3.25 4.57142857142857  C 3.25 5.51785714285714  3.5673828125 6.32589285714286  4.2021484375 6.99553571428571  C 4.8369140625 7.66517857142857  5.60286458333333 8  6.5 8  C 7.39713541666667 8  8.1630859375 7.66517857142857  8.7978515625 6.99553571428571  C 9.4326171875 6.32589285714286  9.75 5.51785714285714  9.75 4.57142857142857  C 9.75 3.625  9.4326171875 2.81696428571429  8.7978515625 2.14732142857143  Z M 2.88606770833333 14.8571428571429  L 10.1139322916667 14.8571428571429  C 10.6104600694444 14.8571428571429  11.0350477430556 14.6443452380952  11.3876953125 14.21875  C 11.7403428819444 13.7931547619048  11.9166666666667 13.2767857142857  11.9166666666667 12.6696428571429  C 11.9166666666667 11.2470238095238  11.6952039930556 10.125  11.2522786458333 9.30357142857143  C 10.8093532986111 8.48214285714286  10.1731770833333 8.05059523809524  9.34375 8.00892857142857  C 8.52560763888889 8.76488095238095  7.57769097222222 9.14285714285714  6.5 9.14285714285714  C 5.42230902777778 9.14285714285714  4.47439236111111 8.76488095238095  3.65625 8.00892857142857  C 2.82682291666667 8.05059523809524  2.19064670138889 8.48214285714286  1.74772135416667 9.30357142857143  C 1.30479600694444 10.125  1.08333333333333 11.2470238095238  1.08333333333333 12.6696428571429  C 1.08333333333333 13.2767857142857  1.25965711805556 13.7931547619048  1.6123046875 14.21875  C 1.96495225694444 14.6443452380952  2.38953993055556 14.8571428571429  2.88606770833333 14.8571428571429  Z " fill-rule="nonzero" fill="#ffffff" stroke="none" transform="matrix(1 0 0 1 628 332 )" />
    <path d="M 10.8333333333333 4.57142857142857  C 10.8333333333333 5.44642857142857  10.6104600694444 6.25595238095238  10.1647135416667 7  C 10.4299045138889 7.08333333333333  10.6824001736111 7.19642857142857  10.9222005208333 7.33928571428571  C 11.1620008680556 7.48214285714286  11.4130859375 7.69940476190476  11.6754557291667 7.99107142857143  C 11.9378255208333 8.28273809523809  12.162109375 8.62648809523809  12.3483072916667 9.02232142857143  C 12.5345052083333 9.41815476190476  12.6896701388889 9.93005952380952  12.8138020833333 10.5580357142857  C 12.9379340277778 11.1860119047619  13 11.889880952381  13 12.6696428571429  C 13 13.5863095238095  12.7178819444444 14.3705357142857  12.1536458333333 15.0223214285714  C 11.5894097222222 15.6741071428571  10.9095052083333 16  10.1139322916667 16  L 2.88606770833333 16  C 2.09049479166667 16  1.41059027777778 15.6741071428571  0.846354166666667 15.0223214285714  C 0.282118055555556 14.3705357142857  0 13.5863095238095  0 12.6696428571429  C 0 11.889880952381  0.0620659722222222 11.1860119047619  0.186197916666667 10.5580357142857  C 0.310329861111111 9.93005952380952  0.465494791666667 9.41815476190476  0.651692708333333 9.02232142857143  C 0.837890625 8.62648809523809  1.06217447916667 8.28273809523809  1.32454427083333 7.99107142857143  C 1.5869140625 7.69940476190476  1.83799913194444 7.48214285714286  2.07779947916667 7.33928571428571  C 2.31759982638889 7.19642857142857  2.57009548611111 7.08333333333333  2.83528645833333 7  C 2.38953993055556 6.25595238095238  2.16666666666667 5.44642857142857  2.16666666666667 4.57142857142857  C 2.16666666666667 3.95238095238095  2.28092447916667 3.36160714285714  2.50944010416667 2.79910714285714  C 2.73795572916667 2.23660714285714  3.046875 1.75  3.43619791666667 1.33928571428571  C 3.82552083333333 0.928571428571429  4.28678385416667 0.602678571428571  4.81998697916667 0.361607142857142  C 5.35319010416667 0.120535714285714  5.91319444444444 0  6.5 0  C 7.08680555555556 0  7.64680989583333 0.120535714285714  8.18001302083333 0.361607142857142  C 8.71321614583333 0.602678571428571  9.17447916666667 0.928571428571429  9.56380208333333 1.33928571428571  C 9.953125 1.75  10.2620442708333 2.23660714285714  10.4905598958333 2.79910714285714  C 10.7190755208333 3.36160714285714  10.8333333333333 3.95238095238095  10.8333333333333 4.57142857142857  Z " stroke-width="2" stroke="#c0c0c0" fill="none" transform="matrix(1 0 0 1 628 332 )" mask="url(#clip34)" />
    <path d="M 8.7978515625 2.14732142857143  C 8.1630859375 1.47767857142857  7.39713541666667 1.14285714285714  6.5 1.14285714285714  C 5.60286458333333 1.14285714285714  4.8369140625 1.47767857142857  4.2021484375 2.14732142857143  C 3.5673828125 2.81696428571429  3.25 3.625  3.25 4.57142857142857  C 3.25 5.51785714285714  3.5673828125 6.32589285714286  4.2021484375 6.99553571428571  C 4.8369140625 7.66517857142857  5.60286458333333 8  6.5 8  C 7.39713541666667 8  8.1630859375 7.66517857142857  8.7978515625 6.99553571428571  C 9.4326171875 6.32589285714286  9.75 5.51785714285714  9.75 4.57142857142857  C 9.75 3.625  9.4326171875 2.81696428571429  8.7978515625 2.14732142857143  Z " stroke-width="2" stroke="#c0c0c0" fill="none" transform="matrix(1 0 0 1 628 332 )" mask="url(#clip34)" />
    <path d="M 2.88606770833333 14.8571428571429  L 10.1139322916667 14.8571428571429  C 10.6104600694444 14.8571428571429  11.0350477430556 14.6443452380952  11.3876953125 14.21875  C 11.7403428819444 13.7931547619048  11.9166666666667 13.2767857142857  11.9166666666667 12.6696428571429  C 11.9166666666667 11.2470238095238  11.6952039930556 10.125  11.2522786458333 9.30357142857143  C 10.8093532986111 8.48214285714286  10.1731770833333 8.05059523809524  9.34375 8.00892857142857  C 8.52560763888889 8.76488095238095  7.57769097222222 9.14285714285714  6.5 9.14285714285714  C 5.42230902777778 9.14285714285714  4.47439236111111 8.76488095238095  3.65625 8.00892857142857  C 2.82682291666667 8.05059523809524  2.19064670138889 8.48214285714286  1.74772135416667 9.30357142857143  C 1.30479600694444 10.125  1.08333333333333 11.2470238095238  1.08333333333333 12.6696428571429  C 1.08333333333333 13.2767857142857  1.25965711805556 13.7931547619048  1.6123046875 14.21875  C 1.96495225694444 14.6443452380952  2.38953993055556 14.8571428571429  2.88606770833333 14.8571428571429  Z " stroke-width="2" stroke="#c0c0c0" fill="none" transform="matrix(1 0 0 1 628 332 )" mask="url(#clip34)" />
  </g>
</svg>