<?xml version="1.0" encoding="utf-8"?>
<svg version="1.1" xmlns:xlink="http://www.w3.org/1999/xlink" width="14px" height="9px" xmlns="http://www.w3.org/2000/svg">
  <defs>
    <mask fill="white" id="clip4">
      <path d="M 10.3671875 1.59442446043165  C 10.1848958333333 1.77248201438849  10.09375 1.99640287769784  10.09375 2.26618705035971  C 10.09375 2.29856115107914  10.1197916666667 2.4091726618705  10.171875 2.59802158273381  C 10.2239583333333 2.7544964028777  10.2890625 2.88803956834532  10.3671875 2.99865107913669  C 10.4453125 3.10926258992806  10.5520833333333 3.20098920863309  10.6875 3.2738309352518  C 10.8229166666667 3.3466726618705  10.9375 3.40062949640288  11.03125 3.43570143884892  C 11.125 3.47077338129496  11.2682291666667 3.51528776978417  11.4609375 3.56924460431655  C 13.1536458333333 4.06025179856115  14 4.95593525179856  14 6.25629496402878  C 14 7.04406474820144  13.7252604166667 7.69829136690648  13.17578125 8.21897482014388  C 12.6263020833333 8.73965827338129  11.9635416666667 9  11.1875 9  C 10.8802083333333 9  10.58984375 8.95008992805755  10.31640625 8.85026978417266  C 10.04296875 8.75044964028777  9.8046875 8.62769784172662  9.6015625 8.48201438848921  C 9.3984375 8.3363309352518  9.19791666666667 8.13534172661871  9 7.87904676258993  C 8.80208333333333 7.62275179856115  8.63802083333333 7.38669064748201  8.5078125 7.17086330935252  C 8.37760416666667 6.95503597122302  8.23828125 6.67580935251799  8.08984375 6.33318345323741  C 7.94140625 5.99055755395683  7.828125 5.71267985611511  7.75 5.49955035971223  C 7.671875 5.28642086330935  7.56901041666667 4.99910071942446  7.44140625 4.63758992805755  C 7.31380208333333 4.27607913669065  7.22135416666667 4.01978417266187  7.1640625 3.86870503597122  C 6.99739583333333 3.43165467625899  6.83723958333333 3.0714928057554  6.68359375 2.78821942446043  C 6.52994791666667 2.50494604316547  6.33854166666667 2.24460431654676  6.109375 2.00719424460432  C 5.88020833333333 1.76978417266187  5.609375 1.59712230215827  5.296875 1.48920863309352  C 4.984375 1.38129496402878  4.61458333333333 1.3273381294964  4.1875 1.3273381294964  C 3.6875 1.3273381294964  3.2109375 1.47706834532374  2.7578125 1.77652877697842  C 2.3046875 2.07598920863309  1.9453125 2.4658273381295  1.6796875 2.94604316546763  C 1.4140625 3.42625899280576  1.28125 3.92535971223022  1.28125 4.44334532374101  C 1.28125 5.30665467625899  1.55859375 6.06070143884892  2.11328125 6.70548561151079  C 2.66796875 7.35026978417266  3.35416666666667 7.6726618705036  4.171875 7.6726618705036  C 5.09375 7.6726618705036  5.765625 7.41636690647482  6.1875 6.90377697841727  C 6.47916666666667 6.56384892086331  6.6953125 6.25089928057554  6.8359375 5.96492805755396  L 7.4921875 7.19514388489209  C 7.4140625 7.37859712230216  7.29947916666667 7.56744604316547  7.1484375 7.76169064748201  L 7.15625 7.76978417266187  C 6.47395833333333 8.58992805755396  5.46354166666667 9  4.125 9  C 3.359375 9  2.65755208333333 8.78687050359712  2.01953125 8.36061151079137  C 1.38151041666667 7.93435251798561  0.885416666666667 7.37455035971223  0.53125 6.68120503597122  C 0.177083333333333 5.98785971223021  0 5.24730215827338  0 4.45953237410072  C 0 3.89298561151079  0.11328125 3.33723021582734  0.33984375 2.79226618705036  C 0.56640625 2.24730215827338  0.868489583333333 1.77113309352518  1.24609375 1.36375899280576  C 1.62369791666667 0.95638489208633  2.07161458333333 0.628597122302157  2.58984375 0.380395683453237  C 3.10807291666667 0.132194244604316  3.640625 0.00809352517985606  4.1875 0.00809352517985606  C 4.640625 0.00809352517985606  5.0546875 0.0593525179856111  5.4296875 0.161870503597122  C 5.8046875 0.264388489208631  6.12630208333333 0.399280575539568  6.39453125 0.566546762589929  C 6.66276041666667 0.733812949640286  6.91015625 0.949640287769783  7.13671875 1.21402877697842  C 7.36328125 1.47841726618705  7.55208333333333 1.7455035971223  7.703125 2.01528776978417  C 7.85416666666667 2.28507194244604  8.00651041666667 2.60071942446043  8.16015625 2.96223021582734  C 8.31380208333333 3.32374100719424  8.4453125 3.65962230215827  8.5546875 3.96987410071942  C 8.6640625 4.28012589928058  8.79427083333333 4.63219424460432  8.9453125 5.02607913669065  C 9.09635416666667 5.41996402877698  9.23958333333333 5.76258992805755  9.375 6.05395683453237  C 9.875 7.13309352517986  10.4817708333333 7.6726618705036  11.1953125 7.6726618705036  C 11.6171875 7.6726618705036  11.9778645833333 7.54181654676259  12.27734375 7.28012589928058  C 12.5768229166667 7.01843525179856  12.7265625 6.67176258992806  12.7265625 6.24010791366906  C 12.7265625 6.01348920863309  12.6770833333333 5.81924460431655  12.578125 5.65737410071942  C 12.4791666666667 5.4955035971223  12.34765625 5.37140287769784  12.18359375 5.28507194244604  C 12.01953125 5.19874100719424  11.8307291666667 5.11375899280575  11.6171875 5.03012589928058  C 11.4036458333333 4.9464928057554  11.18359375 4.87365107913669  10.95703125 4.81160071942446  C 10.73046875 4.74955035971223  10.5026041666667 4.65782374100719  10.2734375 4.53642086330935  C 10.0442708333333 4.41501798561151  9.83333333333333 4.27473021582734  9.640625 4.11555755395683  C 9.44791666666667 3.95638489208633  9.27864583333333 3.7351618705036  9.1328125 3.45188848920863  C 8.98697916666667 3.16861510791367  8.88541666666667 2.83812949640288  8.828125 2.46043165467626  C 8.8125 2.37410071942446  8.8046875 2.28507194244604  8.8046875 2.19334532374101  C 8.8046875 1.59982014388489  9.03255208333333 1.0818345323741  9.48828125 0.639388489208633  C 9.94401041666667 0.196942446043165  10.4609375 -0.0134892086330944  11.0390625 0.00809352517985606  C 11.4453125 0.0242805755395682  11.7591145833333 0.0633992805755387  11.98046875 0.12544964028777  C 12.2018229166667 0.187499999999998  12.4375 0.331834532374101  12.6875 0.558453237410071  L 12.6796875 0.558453237410071  C 12.7421875 0.617805755395683  12.8020833333333 0.683902877697842  12.859375 0.756744604316547  C 12.9166666666667 0.829586330935251  12.984375 0.926708633093524  13.0625 1.04811151079137  C 13.140625 1.16951438848921  13.1901041666667 1.24370503597122  13.2109375 1.27068345323741  L 12.203125 2.07194244604317  C 12.0677083333333 1.80755395683453  11.9270833333333 1.61870503597122  11.78125 1.50539568345324  L 11.78125 1.49730215827338  C 11.6614583333333 1.38399280575539  11.4088541666667 1.3273381294964  11.0234375 1.3273381294964  C 10.7682291666667 1.3273381294964  10.5494791666667 1.41636690647482  10.3671875 1.59442446043165  Z " fill-rule="evenodd" />
    </mask>
  </defs>
  <g transform="matrix(1 0 0 1 -628 -464 )">
    <path d="M 10.3671875 1.59442446043165  C 10.1848958333333 1.77248201438849  10.09375 1.99640287769784  10.09375 2.26618705035971  C 10.09375 2.29856115107914  10.1197916666667 2.4091726618705  10.171875 2.59802158273381  C 10.2239583333333 2.7544964028777  10.2890625 2.88803956834532  10.3671875 2.99865107913669  C 10.4453125 3.10926258992806  10.5520833333333 3.20098920863309  10.6875 3.2738309352518  C 10.8229166666667 3.3466726618705  10.9375 3.40062949640288  11.03125 3.43570143884892  C 11.125 3.47077338129496  11.2682291666667 3.51528776978417  11.4609375 3.56924460431655  C 13.1536458333333 4.06025179856115  14 4.95593525179856  14 6.25629496402878  C 14 7.04406474820144  13.7252604166667 7.69829136690648  13.17578125 8.21897482014388  C 12.6263020833333 8.73965827338129  11.9635416666667 9  11.1875 9  C 10.8802083333333 9  10.58984375 8.95008992805755  10.31640625 8.85026978417266  C 10.04296875 8.75044964028777  9.8046875 8.62769784172662  9.6015625 8.48201438848921  C 9.3984375 8.3363309352518  9.19791666666667 8.13534172661871  9 7.87904676258993  C 8.80208333333333 7.62275179856115  8.63802083333333 7.38669064748201  8.5078125 7.17086330935252  C 8.37760416666667 6.95503597122302  8.23828125 6.67580935251799  8.08984375 6.33318345323741  C 7.94140625 5.99055755395683  7.828125 5.71267985611511  7.75 5.49955035971223  C 7.671875 5.28642086330935  7.56901041666667 4.99910071942446  7.44140625 4.63758992805755  C 7.31380208333333 4.27607913669065  7.22135416666667 4.01978417266187  7.1640625 3.86870503597122  C 6.99739583333333 3.43165467625899  6.83723958333333 3.0714928057554  6.68359375 2.78821942446043  C 6.52994791666667 2.50494604316547  6.33854166666667 2.24460431654676  6.109375 2.00719424460432  C 5.88020833333333 1.76978417266187  5.609375 1.59712230215827  5.296875 1.48920863309352  C 4.984375 1.38129496402878  4.61458333333333 1.3273381294964  4.1875 1.3273381294964  C 3.6875 1.3273381294964  3.2109375 1.47706834532374  2.7578125 1.77652877697842  C 2.3046875 2.07598920863309  1.9453125 2.4658273381295  1.6796875 2.94604316546763  C 1.4140625 3.42625899280576  1.28125 3.92535971223022  1.28125 4.44334532374101  C 1.28125 5.30665467625899  1.55859375 6.06070143884892  2.11328125 6.70548561151079  C 2.66796875 7.35026978417266  3.35416666666667 7.6726618705036  4.171875 7.6726618705036  C 5.09375 7.6726618705036  5.765625 7.41636690647482  6.1875 6.90377697841727  C 6.47916666666667 6.56384892086331  6.6953125 6.25089928057554  6.8359375 5.96492805755396  L 7.4921875 7.19514388489209  C 7.4140625 7.37859712230216  7.29947916666667 7.56744604316547  7.1484375 7.76169064748201  L 7.15625 7.76978417266187  C 6.47395833333333 8.58992805755396  5.46354166666667 9  4.125 9  C 3.359375 9  2.65755208333333 8.78687050359712  2.01953125 8.36061151079137  C 1.38151041666667 7.93435251798561  0.885416666666667 7.37455035971223  0.53125 6.68120503597122  C 0.177083333333333 5.98785971223021  0 5.24730215827338  0 4.45953237410072  C 0 3.89298561151079  0.11328125 3.33723021582734  0.33984375 2.79226618705036  C 0.56640625 2.24730215827338  0.868489583333333 1.77113309352518  1.24609375 1.36375899280576  C 1.62369791666667 0.95638489208633  2.07161458333333 0.628597122302157  2.58984375 0.380395683453237  C 3.10807291666667 0.132194244604316  3.640625 0.00809352517985606  4.1875 0.00809352517985606  C 4.640625 0.00809352517985606  5.0546875 0.0593525179856111  5.4296875 0.161870503597122  C 5.8046875 0.264388489208631  6.12630208333333 0.399280575539568  6.39453125 0.566546762589929  C 6.66276041666667 0.733812949640286  6.91015625 0.949640287769783  7.13671875 1.21402877697842  C 7.36328125 1.47841726618705  7.55208333333333 1.7455035971223  7.703125 2.01528776978417  C 7.85416666666667 2.28507194244604  8.00651041666667 2.60071942446043  8.16015625 2.96223021582734  C 8.31380208333333 3.32374100719424  8.4453125 3.65962230215827  8.5546875 3.96987410071942  C 8.6640625 4.28012589928058  8.79427083333333 4.63219424460432  8.9453125 5.02607913669065  C 9.09635416666667 5.41996402877698  9.23958333333333 5.76258992805755  9.375 6.05395683453237  C 9.875 7.13309352517986  10.4817708333333 7.6726618705036  11.1953125 7.6726618705036  C 11.6171875 7.6726618705036  11.9778645833333 7.54181654676259  12.27734375 7.28012589928058  C 12.5768229166667 7.01843525179856  12.7265625 6.67176258992806  12.7265625 6.24010791366906  C 12.7265625 6.01348920863309  12.6770833333333 5.81924460431655  12.578125 5.65737410071942  C 12.4791666666667 5.4955035971223  12.34765625 5.37140287769784  12.18359375 5.28507194244604  C 12.01953125 5.19874100719424  11.8307291666667 5.11375899280575  11.6171875 5.03012589928058  C 11.4036458333333 4.9464928057554  11.18359375 4.87365107913669  10.95703125 4.81160071942446  C 10.73046875 4.74955035971223  10.5026041666667 4.65782374100719  10.2734375 4.53642086330935  C 10.0442708333333 4.41501798561151  9.83333333333333 4.27473021582734  9.640625 4.11555755395683  C 9.44791666666667 3.95638489208633  9.27864583333333 3.7351618705036  9.1328125 3.45188848920863  C 8.98697916666667 3.16861510791367  8.88541666666667 2.83812949640288  8.828125 2.46043165467626  C 8.8125 2.37410071942446  8.8046875 2.28507194244604  8.8046875 2.19334532374101  C 8.8046875 1.59982014388489  9.03255208333333 1.0818345323741  9.48828125 0.639388489208633  C 9.94401041666667 0.196942446043165  10.4609375 -0.0134892086330944  11.0390625 0.00809352517985606  C 11.4453125 0.0242805755395682  11.7591145833333 0.0633992805755387  11.98046875 0.12544964028777  C 12.2018229166667 0.187499999999998  12.4375 0.331834532374101  12.6875 0.558453237410071  L 12.6796875 0.558453237410071  C 12.7421875 0.617805755395683  12.8020833333333 0.683902877697842  12.859375 0.756744604316547  C 12.9166666666667 0.829586330935251  12.984375 0.926708633093524  13.0625 1.04811151079137  C 13.140625 1.16951438848921  13.1901041666667 1.24370503597122  13.2109375 1.27068345323741  L 12.203125 2.07194244604317  C 12.0677083333333 1.80755395683453  11.9270833333333 1.61870503597122  11.78125 1.50539568345324  L 11.78125 1.49730215827338  C 11.6614583333333 1.38399280575539  11.4088541666667 1.3273381294964  11.0234375 1.3273381294964  C 10.7682291666667 1.3273381294964  10.5494791666667 1.41636690647482  10.3671875 1.59442446043165  Z " fill-rule="nonzero" fill="#ffffff" stroke="none" fill-opacity="0" transform="matrix(1 0 0 1 628 464 )" />
    <path d="M 10.3671875 1.59442446043165  C 10.1848958333333 1.77248201438849  10.09375 1.99640287769784  10.09375 2.26618705035971  C 10.09375 2.29856115107914  10.1197916666667 2.4091726618705  10.171875 2.59802158273381  C 10.2239583333333 2.7544964028777  10.2890625 2.88803956834532  10.3671875 2.99865107913669  C 10.4453125 3.10926258992806  10.5520833333333 3.20098920863309  10.6875 3.2738309352518  C 10.8229166666667 3.3466726618705  10.9375 3.40062949640288  11.03125 3.43570143884892  C 11.125 3.47077338129496  11.2682291666667 3.51528776978417  11.4609375 3.56924460431655  C 13.1536458333333 4.06025179856115  14 4.95593525179856  14 6.25629496402878  C 14 7.04406474820144  13.7252604166667 7.69829136690648  13.17578125 8.21897482014388  C 12.6263020833333 8.73965827338129  11.9635416666667 9  11.1875 9  C 10.8802083333333 9  10.58984375 8.95008992805755  10.31640625 8.85026978417266  C 10.04296875 8.75044964028777  9.8046875 8.62769784172662  9.6015625 8.48201438848921  C 9.3984375 8.3363309352518  9.19791666666667 8.13534172661871  9 7.87904676258993  C 8.80208333333333 7.62275179856115  8.63802083333333 7.38669064748201  8.5078125 7.17086330935252  C 8.37760416666667 6.95503597122302  8.23828125 6.67580935251799  8.08984375 6.33318345323741  C 7.94140625 5.99055755395683  7.828125 5.71267985611511  7.75 5.49955035971223  C 7.671875 5.28642086330935  7.56901041666667 4.99910071942446  7.44140625 4.63758992805755  C 7.31380208333333 4.27607913669065  7.22135416666667 4.01978417266187  7.1640625 3.86870503597122  C 6.99739583333333 3.43165467625899  6.83723958333333 3.0714928057554  6.68359375 2.78821942446043  C 6.52994791666667 2.50494604316547  6.33854166666667 2.24460431654676  6.109375 2.00719424460432  C 5.88020833333333 1.76978417266187  5.609375 1.59712230215827  5.296875 1.48920863309352  C 4.984375 1.38129496402878  4.61458333333333 1.3273381294964  4.1875 1.3273381294964  C 3.6875 1.3273381294964  3.2109375 1.47706834532374  2.7578125 1.77652877697842  C 2.3046875 2.07598920863309  1.9453125 2.4658273381295  1.6796875 2.94604316546763  C 1.4140625 3.42625899280576  1.28125 3.92535971223022  1.28125 4.44334532374101  C 1.28125 5.30665467625899  1.55859375 6.06070143884892  2.11328125 6.70548561151079  C 2.66796875 7.35026978417266  3.35416666666667 7.6726618705036  4.171875 7.6726618705036  C 5.09375 7.6726618705036  5.765625 7.41636690647482  6.1875 6.90377697841727  C 6.47916666666667 6.56384892086331  6.6953125 6.25089928057554  6.8359375 5.96492805755396  L 7.4921875 7.19514388489209  C 7.4140625 7.37859712230216  7.29947916666667 7.56744604316547  7.1484375 7.76169064748201  L 7.15625 7.76978417266187  C 6.47395833333333 8.58992805755396  5.46354166666667 9  4.125 9  C 3.359375 9  2.65755208333333 8.78687050359712  2.01953125 8.36061151079137  C 1.38151041666667 7.93435251798561  0.885416666666667 7.37455035971223  0.53125 6.68120503597122  C 0.177083333333333 5.98785971223021  0 5.24730215827338  0 4.45953237410072  C 0 3.89298561151079  0.11328125 3.33723021582734  0.33984375 2.79226618705036  C 0.56640625 2.24730215827338  0.868489583333333 1.77113309352518  1.24609375 1.36375899280576  C 1.62369791666667 0.95638489208633  2.07161458333333 0.628597122302157  2.58984375 0.380395683453237  C 3.10807291666667 0.132194244604316  3.640625 0.00809352517985606  4.1875 0.00809352517985606  C 4.640625 0.00809352517985606  5.0546875 0.0593525179856111  5.4296875 0.161870503597122  C 5.8046875 0.264388489208631  6.12630208333333 0.399280575539568  6.39453125 0.566546762589929  C 6.66276041666667 0.733812949640286  6.91015625 0.949640287769783  7.13671875 1.21402877697842  C 7.36328125 1.47841726618705  7.55208333333333 1.7455035971223  7.703125 2.01528776978417  C 7.85416666666667 2.28507194244604  8.00651041666667 2.60071942446043  8.16015625 2.96223021582734  C 8.31380208333333 3.32374100719424  8.4453125 3.65962230215827  8.5546875 3.96987410071942  C 8.6640625 4.28012589928058  8.79427083333333 4.63219424460432  8.9453125 5.02607913669065  C 9.09635416666667 5.41996402877698  9.23958333333333 5.76258992805755  9.375 6.05395683453237  C 9.875 7.13309352517986  10.4817708333333 7.6726618705036  11.1953125 7.6726618705036  C 11.6171875 7.6726618705036  11.9778645833333 7.54181654676259  12.27734375 7.28012589928058  C 12.5768229166667 7.01843525179856  12.7265625 6.67176258992806  12.7265625 6.24010791366906  C 12.7265625 6.01348920863309  12.6770833333333 5.81924460431655  12.578125 5.65737410071942  C 12.4791666666667 5.4955035971223  12.34765625 5.37140287769784  12.18359375 5.28507194244604  C 12.01953125 5.19874100719424  11.8307291666667 5.11375899280575  11.6171875 5.03012589928058  C 11.4036458333333 4.9464928057554  11.18359375 4.87365107913669  10.95703125 4.81160071942446  C 10.73046875 4.74955035971223  10.5026041666667 4.65782374100719  10.2734375 4.53642086330935  C 10.0442708333333 4.41501798561151  9.83333333333333 4.27473021582734  9.640625 4.11555755395683  C 9.44791666666667 3.95638489208633  9.27864583333333 3.7351618705036  9.1328125 3.45188848920863  C 8.98697916666667 3.16861510791367  8.88541666666667 2.83812949640288  8.828125 2.46043165467626  C 8.8125 2.37410071942446  8.8046875 2.28507194244604  8.8046875 2.19334532374101  C 8.8046875 1.59982014388489  9.03255208333333 1.0818345323741  9.48828125 0.639388489208633  C 9.94401041666667 0.196942446043165  10.4609375 -0.0134892086330944  11.0390625 0.00809352517985606  C 11.4453125 0.0242805755395682  11.7591145833333 0.0633992805755387  11.98046875 0.12544964028777  C 12.2018229166667 0.187499999999998  12.4375 0.331834532374101  12.6875 0.558453237410071  L 12.6796875 0.558453237410071  C 12.7421875 0.617805755395683  12.8020833333333 0.683902877697842  12.859375 0.756744604316547  C 12.9166666666667 0.829586330935251  12.984375 0.926708633093524  13.0625 1.04811151079137  C 13.140625 1.16951438848921  13.1901041666667 1.24370503597122  13.2109375 1.27068345323741  L 12.203125 2.07194244604317  C 12.0677083333333 1.80755395683453  11.9270833333333 1.61870503597122  11.78125 1.50539568345324  L 11.78125 1.49730215827338  C 11.6614583333333 1.38399280575539  11.4088541666667 1.3273381294964  11.0234375 1.3273381294964  C 10.7682291666667 1.3273381294964  10.5494791666667 1.41636690647482  10.3671875 1.59442446043165  Z " stroke-width="2" stroke="#c0c0c0" fill="none" transform="matrix(1 0 0 1 628 464 )" mask="url(#clip4)" />
  </g>
</svg>