<?xml version="1.0" encoding="utf-8"?>
<svg version="1.1" xmlns:xlink="http://www.w3.org/1999/xlink" width="13px" height="16px" xmlns="http://www.w3.org/2000/svg">
  <defs>
    <mask fill="white" id="clip36">
      <path d="M 3.61111111111111 5.09090909090909  L 3.61111111111111 7.27272727272727  L 9.38888888888889 7.27272727272727  L 9.38888888888889 5.09090909090909  C 9.38888888888889 4.28787878787879  9.10677083333333 3.60227272727273  8.54253472222222 3.03409090909091  C 7.97829861111111 2.46590909090909  7.29745370370371 2.18181818181818  6.5 2.18181818181818  C 5.7025462962963 2.18181818181818  5.02170138888889 2.46590909090909  4.45746527777778 3.03409090909091  C 3.89322916666667 3.60227272727273  3.61111111111111 4.28787878787879  3.61111111111111 5.09090909090909  Z M 12.6840277777778 7.59090909090909  C 12.8946759259259 7.8030303030303  13 8.06060606060606  13 8.36363636363636  L 13 14.9090909090909  C 13 15.2121212121212  12.8946759259259 15.469696969697  12.6840277777778 15.6818181818182  C 12.4733796296296 15.8939393939394  12.2175925925926 16  11.9166666666667 16  L 1.08333333333333 16  C 0.782407407407408 16  0.52662037037037 15.8939393939394  0.315972222222222 15.6818181818182  C 0.105324074074074 15.469696969697  0 15.2121212121212  0 14.9090909090909  L 0 8.36363636363636  C 0 8.06060606060606  0.105324074074074 7.8030303030303  0.315972222222222 7.59090909090909  C 0.52662037037037 7.37878787878788  0.782407407407408 7.27272727272727  1.08333333333333 7.27272727272727  L 1.44444444444444 7.27272727272727  L 1.44444444444444 5.09090909090909  C 1.44444444444444 3.6969696969697  1.94097222222222 2.5  2.93402777777778 1.5  C 3.92708333333333 0.5  5.11574074074074 0  6.5 0  C 7.88425925925926 0  9.07291666666667 0.5  10.0659722222222 1.5  C 11.0590277777778 2.5  11.5555555555556 3.6969696969697  11.5555555555556 5.09090909090909  L 11.5555555555556 7.27272727272727  L 11.9166666666667 7.27272727272727  C 12.2175925925926 7.27272727272727  12.4733796296296 7.37878787878788  12.6840277777778 7.59090909090909  Z " fill-rule="evenodd" />
    </mask>
  </defs>
  <g transform="matrix(1 0 0 1 -628 -396 )">
    <path d="M 3.61111111111111 5.09090909090909  L 3.61111111111111 7.27272727272727  L 9.38888888888889 7.27272727272727  L 9.38888888888889 5.09090909090909  C 9.38888888888889 4.28787878787879  9.10677083333333 3.60227272727273  8.54253472222222 3.03409090909091  C 7.97829861111111 2.46590909090909  7.29745370370371 2.18181818181818  6.5 2.18181818181818  C 5.7025462962963 2.18181818181818  5.02170138888889 2.46590909090909  4.45746527777778 3.03409090909091  C 3.89322916666667 3.60227272727273  3.61111111111111 4.28787878787879  3.61111111111111 5.09090909090909  Z M 12.6840277777778 7.59090909090909  C 12.8946759259259 7.8030303030303  13 8.06060606060606  13 8.36363636363636  L 13 14.9090909090909  C 13 15.2121212121212  12.8946759259259 15.469696969697  12.6840277777778 15.6818181818182  C 12.4733796296296 15.8939393939394  12.2175925925926 16  11.9166666666667 16  L 1.08333333333333 16  C 0.782407407407408 16  0.52662037037037 15.8939393939394  0.315972222222222 15.6818181818182  C 0.105324074074074 15.469696969697  0 15.2121212121212  0 14.9090909090909  L 0 8.36363636363636  C 0 8.06060606060606  0.105324074074074 7.8030303030303  0.315972222222222 7.59090909090909  C 0.52662037037037 7.37878787878788  0.782407407407408 7.27272727272727  1.08333333333333 7.27272727272727  L 1.44444444444444 7.27272727272727  L 1.44444444444444 5.09090909090909  C 1.44444444444444 3.6969696969697  1.94097222222222 2.5  2.93402777777778 1.5  C 3.92708333333333 0.5  5.11574074074074 0  6.5 0  C 7.88425925925926 0  9.07291666666667 0.5  10.0659722222222 1.5  C 11.0590277777778 2.5  11.5555555555556 3.6969696969697  11.5555555555556 5.09090909090909  L 11.5555555555556 7.27272727272727  L 11.9166666666667 7.27272727272727  C 12.2175925925926 7.27272727272727  12.4733796296296 7.37878787878788  12.6840277777778 7.59090909090909  Z " fill-rule="nonzero" fill="#000000" stroke="none" fill-opacity="0" transform="matrix(1 0 0 1 628 396 )" />
    <path d="M 3.61111111111111 5.09090909090909  L 3.61111111111111 7.27272727272727  L 9.38888888888889 7.27272727272727  L 9.38888888888889 5.09090909090909  C 9.38888888888889 4.28787878787879  9.10677083333333 3.60227272727273  8.54253472222222 3.03409090909091  C 7.97829861111111 2.46590909090909  7.29745370370371 2.18181818181818  6.5 2.18181818181818  C 5.7025462962963 2.18181818181818  5.02170138888889 2.46590909090909  4.45746527777778 3.03409090909091  C 3.89322916666667 3.60227272727273  3.61111111111111 4.28787878787879  3.61111111111111 5.09090909090909  Z " stroke-width="2" stroke="#c0c0c0" fill="none" transform="matrix(1 0 0 1 628 396 )" mask="url(#clip36)" />
    <path d="M 12.6840277777778 7.59090909090909  C 12.8946759259259 7.8030303030303  13 8.06060606060606  13 8.36363636363636  L 13 14.9090909090909  C 13 15.2121212121212  12.8946759259259 15.469696969697  12.6840277777778 15.6818181818182  C 12.4733796296296 15.8939393939394  12.2175925925926 16  11.9166666666667 16  L 1.08333333333333 16  C 0.782407407407408 16  0.52662037037037 15.8939393939394  0.315972222222222 15.6818181818182  C 0.105324074074074 15.469696969697  0 15.2121212121212  0 14.9090909090909  L 0 8.36363636363636  C 0 8.06060606060606  0.105324074074074 7.8030303030303  0.315972222222222 7.59090909090909  C 0.52662037037037 7.37878787878788  0.782407407407408 7.27272727272727  1.08333333333333 7.27272727272727  L 1.44444444444444 7.27272727272727  L 1.44444444444444 5.09090909090909  C 1.44444444444444 3.6969696969697  1.94097222222222 2.5  2.93402777777778 1.5  C 3.92708333333333 0.5  5.11574074074074 0  6.5 0  C 7.88425925925926 0  9.07291666666667 0.5  10.0659722222222 1.5  C 11.0590277777778 2.5  11.5555555555556 3.6969696969697  11.5555555555556 5.09090909090909  L 11.5555555555556 7.27272727272727  L 11.9166666666667 7.27272727272727  C 12.2175925925926 7.27272727272727  12.4733796296296 7.37878787878788  12.6840277777778 7.59090909090909  Z " stroke-width="2" stroke="#c0c0c0" fill="none" transform="matrix(1 0 0 1 628 396 )" mask="url(#clip36)" />
  </g>
</svg>