<?xml version="1.0" encoding="utf-8"?>
<svg version="1.1" xmlns:xlink="http://www.w3.org/1999/xlink" width="56px" height="20px" xmlns="http://www.w3.org/2000/svg">
  <defs>
    <mask fill="white" id="clip39">
      <path d="M 0 16  L 0 4  C 0 1.76  1.75999999999999 0  4 0  L 28 0  L 52 0  C 54.24 0  56 1.76  56 4  L 56 16  C 56 18.24  54.24 20  52 20  L 4 20  C 1.75999999999999 20  0 18.24  0 16  Z " fill-rule="evenodd" />
    </mask>
  </defs>
  <g transform="matrix(1 0 0 1 -768 -331 )">
    <path d="M 0 16  L 0 4  C 0 1.76  1.75999999999999 0  4 0  L 28 0  L 52 0  C 54.24 0  56 1.76  56 4  L 56 16  C 56 18.24  54.24 20  52 20  L 4 20  C 1.75999999999999 20  0 18.24  0 16  Z " fill-rule="nonzero" fill="#e6f7ff" stroke="none" transform="matrix(1 0 0 1 768 331 )" />
    <path d="M 0 16  L 0 4  C 0 1.76  1.75999999999999 0  4 0  L 28 0  L 52 0  C 54.24 0  56 1.76  56 4  L 56 16  C 56 18.24  54.24 20  52 20  L 4 20  C 1.75999999999999 20  0 18.24  0 16  Z " stroke-width="2" stroke="#91d5ff" fill="none" transform="matrix(1 0 0 1 768 331 )" mask="url(#clip39)" />
  </g>
</svg>