<?xml version="1.0" encoding="utf-8"?>
<svg version="1.1" xmlns:xlink="http://www.w3.org/1999/xlink" width="104px" height="104px" xmlns="http://www.w3.org/2000/svg">
  <g transform="matrix(1 0 0 1 -474 -320 )">
    <path d="M 475 324  A 3 3 0 0 1 478 321 L 574 321  A 3 3 0 0 1 577 324 L 577 420  A 3 3 0 0 1 574 423 L 478 423  A 3 3 0 0 1 475 420 L 475 324  Z " fill-rule="nonzero" fill="#ffffff" stroke="none" />
    <path d="M 474.5 324  A 3.5 3.5 0 0 1 478 320.5 L 574 320.5  A 3.5 3.5 0 0 1 577.5 324 L 577.5 420  A 3.5 3.5 0 0 1 574 423.5 L 478 423.5  A 3.5 3.5 0 0 1 474.5 420 L 474.5 324  Z " stroke-width="1" stroke-dasharray="9,4" stroke="#d9d9d9" fill="none" stroke-dashoffset="0.5" />
  </g>
</svg>