<?xml version="1.0" encoding="utf-8"?>
<svg version="1.1" xmlns:xlink="http://www.w3.org/1999/xlink" width="80px" height="80px" xmlns="http://www.w3.org/2000/svg">
  <g transform="matrix(1 0 0 1 -1300 -144 )">
    <path d="M 46.1979166666667 20.46875  C 46.5104166666667 20.78125  46.6666666666667 21.1805555555555  46 21.6666666666667  L 46 45  C 46.6666666666667 45.4861111111111  46.5104166666667 45.8854166666667  46.1979166666667 46.1979166666667  C 45.8854166666667 46.5104166666667  45.4861111111111 46.6666666666667  45 46  L 28.3333333333333 46  C 27.8472222222222 46.6666666666667  27.4479166666667 46.5104166666667  27.1354166666667 46.1979166666667  C 26.8229166666667 45.8854166666667  26.6666666666667 45.4861111111111  26.6666666666667 45  L 26.6666666666667 41.6666666666667  C 26.6666666666667 41.1805555555556  26.8229166666667 40.78125  27.1354166666667 40.46875  C 27.4479166666667 40.15625  27.8472222222222 40  28.3333333333333 40  L 40 40  L 40 21.6666666666667  C 40 21.1805555555555  40.15625 20.78125  40.46875 20.46875  C 40.78125 20.15625  41.1805555555556 20  41.6666666666667 20  L 45 20  C 45.4861111111111 20  45.8854166666667 20.15625  46.1979166666667 20.46875  Z M 64.53125 54.21875  C 67.0659722222222 49.8784722222222  68.3333333333333 45.1388888888889  68.3333333333333 40  C 68.3333333333333 34.8611111111111  67.0659722222222 30.1215277777778  64.53125 25.78125  C 61.9965277777778 21.4409722222222  58.5590277777778 18.0034722222222  54.21875 15.46875  C 49.8784722222222 12.9340277777778  45.1388888888889 11.6666666666667  40 11.6666666666667  C 34.8611111111111 11.6666666666667  30.1215277777778 12.9340277777778  25.78125 15.46875  C 21.4409722222222 18.0034722222222  18.0034722222222 21.4409722222222  15.46875 25.78125  C 12.9340277777778 30.1215277777778  11.6666666666667 34.8611111111111  11.6666666666667 40  C 11.6666666666667 45.1388888888889  12.9340277777778 49.8784722222222  15.46875 54.21875  C 18.0034722222222 58.5590277777778  21.4409722222222 61.9965277777778  25.78125 64.53125  C 30.1215277777778 67.0659722222222  34.8611111111111 68.3333333333333  40 68.3333333333333  C 45.1388888888889 68.3333333333333  49.8784722222222 67.0659722222222  54.21875 64.53125  C 58.5590277777778 61.9965277777778  61.9965277777778 58.5590277777778  64.53125 54.21875  Z M 74.6354166666667 19.921875  C 78.2118055555555 26.0503472222222  80 32.7430555555555  80 40  C 80 47.2569444444444  78.2118055555555 53.9496527777778  74.6354166666667 60.078125  C 71.0590277777778 66.2065972222222  66.2065972222222 71.0590277777778  60.078125 74.6354166666667  C 53.9496527777778 78.2118055555556  47.2569444444444 80  40 80  C 32.7430555555556 80  26.0503472222222 78.2118055555556  19.921875 74.6354166666667  C 13.7934027777778 71.0590277777778  8.94097222222222 66.2065972222222  5.36458333333333 60.078125  C 1.78819444444444 53.9496527777778  0 47.2569444444444  0 40  C 0 32.7430555555555  1.78819444444444 26.0503472222222  5.36458333333333 19.921875  C 8.94097222222222 13.7934027777778  13.7934027777778 8.94097222222221  19.921875 5.36458333333333  C 26.0503472222222 1.78819444444444  32.7430555555556 0  40 0  C 47.2569444444444 0  53.9496527777778 1.78819444444444  60.078125 5.36458333333333  C 66.2065972222222 8.94097222222221  71.0590277777778 13.7934027777778  74.6354166666667 19.921875  Z " fill-rule="nonzero" fill="#d7d7d7" stroke="none" transform="matrix(1 0 0 1 1300 144 )" />
  </g>
</svg>